<svg xmlns="http://www.w3.org/2000/svg" width="78" height="54" viewBox="0 0 78 54" fill="none">
  <g clip-path="url(#clip0_151_505)">
    <path d="M62.434 19.7891L62.465 26.3135L71.331 20.8688L71.269 28.4112L56.5905 37.4344V16.3341L65.4565 10.9202V4.50377L56.5905 9.90223V3.03847L61.5815 0.0307617H29.4965L0 18.0616V53.9691H6.696V31.9588L25.854 20.2981V46.2261L19.9795 49.8508V30.7711L12.5705 35.3058V53.9691H33.7745V22.5192L48.5305 13.4961V20.5295L39.6645 25.9742V33.0076L48.4995 27.5937L48.5305 35.1053L39.6645 40.5192V47.2441L48.5305 41.7994V49.3418L40.982 53.9691H58.9L78.5385 42.1387L78.368 0.0307617H71.3L71.331 14.2981L62.434 19.7891Z" fill="#F7B818"/>
  </g>
  <defs>
    <clipPath id="clip0_151_505">
      <rect width="78" height="54" fill="white"/>
    </clipPath>
  </defs>
</svg>